<svg xmlns="http://www.w3.org/2000/svg" width="512" height="512" viewBox="0 0 512 512">
  <!-- Maskable variant: same art scaled down for safe area -->
  <rect width="512" height="512" fill="#ffffff"/>
  <g transform="translate(51.2,51.2) scale(0.8)">
    <defs>
      <linearGradient id="ring" x1="64" y1="64" x2="448" y2="448" gradientUnits="userSpaceOnUse">
        <stop offset="0" stop-color="#60a5fa"/>
        <stop offset="1" stop-color="#1d4ed8"/>
      </linearGradient>
      <linearGradient id="ocean" x1="170" y1="170" x2="342" y2="342" gradientUnits="userSpaceOnUse">
        <stop offset="0" stop-color="#38bdf8"/>
        <stop offset="1" stop-color="#1d4ed8"/>
      </linearGradient>
      <linearGradient id="land" x1="200" y1="190" x2="312" y2="318" gradientUnits="userSpaceOnUse">
        <stop offset="0" stop-color="#4ade80"/>
        <stop offset="1" stop-color="#16a34a"/>
      </linearGradient>
      <linearGradient id="wrench" x1="220" y1="210" x2="320" y2="330" gradientUnits="userSpaceOnUse">
        <stop offset="0" stop-color="#e5e7eb"/>
        <stop offset="1" stop-color="#6b7280"/>
      </linearGradient>
      <filter id="soft" x="-20%" y="-20%" width="140%" height="140%">
        <feDropShadow dx="0" dy="2" stdDeviation="3" flood-color="#0f172a" flood-opacity="0.20"/>
      </filter>
    </defs>

    <circle cx="256" cy="256" r="220" fill="none" stroke="url(#ring)" stroke-width="36"/>

    <g filter="url(#soft)">
      <circle cx="256" cy="238" r="112" fill="url(#ocean)"/>
      <path d="M144 238h224" stroke="#e0f2fe" stroke-width="10" stroke-linecap="round" opacity="0.95"/>
      <path d="M256 126c-36 40-36 182 0 224" stroke="#e0f2fe" stroke-width="10" stroke-linecap="round" opacity="0.95" fill="none"/>
      <path d="M256 126c36 40 36 182 0 224" stroke="#e0f2fe" stroke-width="10" stroke-linecap="round" opacity="0.95" fill="none"/>
      <path d="M166 186c30 18 150 18 180 0" stroke="#e0f2fe" stroke-width="10" stroke-linecap="round" opacity="0.70" fill="none"/>
      <path d="M166 290c30-18 150-18 180 0" stroke="#e0f2fe" stroke-width="10" stroke-linecap="round" opacity="0.70" fill="none"/>
      <path d="M210 175c18-12 42-12 58 2 10 9 18 26 8 42-7 11-18 11-28 20-12 12-9 26-25 32-20 7-43-11-46-32-3-21 13-48 33-64z" fill="url(#land)" opacity="0.95"/>
      <path d="M294 250c22-6 50 6 56 26 6 20-10 43-32 48-18 4-31-6-42-18-11-13-6-49 18-56z" fill="url(#land)" opacity="0.95"/>
      <path d="M354 222c0-12 10-22 22-22s22 10 22 22c0 16-22 42-22 42s-22-26-22-42z" fill="#fb923c"/>
      <circle cx="376" cy="222" r="8" fill="#ffffff" opacity="0.95"/>
    </g>

    <g filter="url(#soft)">
      <path d="M296 214c-10 0-19 4-26 11l-9 9-12-12 9-9c7-7 11-16 11-26 0-3 0-6-1-8-11 2-21 7-29 15-16 16-19 40-10 59l-53 53c-10 10-10 26 0 36 10 10 26 10 36 0l53-53c7 3 14 4 21 4 15 0 30-6 41-17 8-8 13-18 15-29-2-1-5-1-8-1z" fill="url(#wrench)"/>
      <circle cx="206" cy="332" r="14" fill="#9ca3af"/>
      <circle cx="206" cy="332" r="7" fill="#f9fafb"/>
    </g>
  </g>
</svg>
